<?xml version="1.0" encoding="iso-8859-1"?>
<!-- Generator: Adobe Illustrator 19.0.0, SVG Export Plug-In . SVG Version: 6.00 Build 0)  -->
<svg version="1.1" id="Layer_1" xmlns="http://www.w3.org/2000/svg" xmlns:xlink="http://www.w3.org/1999/xlink" x="0px" y="0px"
	 viewBox="0 0 512 512" style="enable-background:new 0 0 512 512;" xml:space="preserve">
<polygon style="fill:#7BC690;" points="56.941,298.82 103.39,298.82 103.39,205.908 26.747,205.908 "/>
<path style="fill:#CFDCE5;" d="M100.262,207.8v-0.015L59.242,60.086L32.39,67.551C18.794,71.328,4.719,63.369,0.94,49.758
	C-2.839,36.162,5.12,22.085,18.716,18.306L56.067,7.931c21.4-5.947,43.56,6.581,49.491,27.966l51.829,186.597"/>
<path style="fill:#FF6F52;" d="M334.481,205.082l0.095,0.01v-21.368c0-6.023-4.882-10.905-10.905-10.905H296.71
	c-6.023,0-10.905,4.882-10.905,10.905v16.302l0.016,0.001c-26.575,3.74-49.837,17.814-65.577,38.024l179.583,46.255
	C394.069,247.589,368.539,217.446,334.481,205.082z"/>
<path style="fill:#E25749;" d="M224.683,299.966c0-51.363,38.374-93.734,88.01-100.083c-4.236-0.542-8.544-0.852-12.926-0.852
	c-55.745,0-100.936,45.19-100.936,100.936c0,55.745,45.19,100.936,100.936,100.936c4.383,0,8.691-0.31,12.926-0.852
	C263.057,393.699,224.683,351.328,224.683,299.966z"/>
<path style="fill:#8DE0A8;" d="M100.262,305.741v-99.833l332.236,85.557c32.767,8.424,55.654,37.97,55.654,71.789v17.948
	l-114.126,77.891H230.215"/>
<g>
	<circle style="fill:#415E72;" cx="143.303" cy="401.022" r="104.525"/>
	<circle style="fill:#415E72;" cx="440.805" cy="434.346" r="71.195"/>
</g>
<g>
	<circle style="fill:#CFDCE5;" cx="143.303" cy="401.022" r="44.88"/>
	<circle style="fill:#CFDCE5;" cx="440.805" cy="434.346" r="24.668"/>
</g>
<g>
	<path style="fill:#344F5E;" d="M143.308,455.279c-29.92,0-54.262-24.341-54.262-54.262c0-29.92,24.341-54.262,54.262-54.262
		s54.262,24.341,54.262,54.262C197.57,430.937,173.229,455.279,143.308,455.279z M143.308,365.52
		c-19.573,0-35.498,15.924-35.498,35.498s15.924,35.498,35.498,35.498s35.498-15.924,35.498-35.498S162.883,365.52,143.308,365.52z"
		/>
	<path style="fill:#344F5E;" d="M440.805,473.104c-21.374,0-38.762-17.389-38.762-38.762s17.388-38.762,38.762-38.762
		s38.762,17.389,38.762,38.762S462.179,473.104,440.805,473.104z M440.805,414.344c-11.027,0-19.998,8.971-19.998,19.998
		s8.971,19.998,19.998,19.998s19.998-8.971,19.998-19.998S451.832,414.344,440.805,414.344z"/>
	<rect x="277.5" y="339.152" style="fill:#344F5E;" width="100.773" height="12.509"/>
	<rect x="277.5" y="315.348" style="fill:#344F5E;" width="100.773" height="12.509"/>
	<rect x="277.5" y="362.957" style="fill:#344F5E;" width="70.576" height="12.509"/>
</g>
<path style="fill:#E25749;" d="M312.693,199.881v-27.062h-15.985c-6.023,0-10.905,4.882-10.905,10.905v16.303"/>
<g>
</g>
<g>
</g>
<g>
</g>
<g>
</g>
<g>
</g>
<g>
</g>
<g>
</g>
<g>
</g>
<g>
</g>
<g>
</g>
<g>
</g>
<g>
</g>
<g>
</g>
<g>
</g>
<g>
</g>
</svg>
