<svg id="Layer_1" data-name="Layer 1" xmlns="http://www.w3.org/2000/svg" viewBox="0 0 1550.06 523.46"><defs><style>.cls-1{fill:#d1cca7;}.cls-2{fill:#e5e2c1;}.cls-3{fill:#348989;}.cls-4{fill:#49bcc4;}.cls-5{fill:#f75252;}.cls-6{fill:#7abcb5;}.cls-7,.cls-9{fill:#fff;}.cls-8{fill:#49bcc3;}.cls-9{opacity:0.55;}.cls-10{fill:#ada679;}</style></defs><g id="Cute_airplane" data-name="Cute airplane"><polygon class="cls-1" points="1175.11 335.26 1169.76 222.74 1234.01 304.34 1175.11 335.26 1175.11 335.26"/><path class="cls-2" d="M1210.81,187.76s43.37,1.67,100,10.11c61.57,9.18,118.68,35.95,118.68,35.95l-55.32,61.94L1408,361.43s-54.88-17.62-131.18-25.2c-73.74-7.34-101.74-1-101.74-1l58.9-30.92Z"/><path class="cls-3" d="M703.39,287.47a2.85,2.85,0,0,1-1.43-.39l-82-48.14a2.83,2.83,0,0,1,.15-5c32.5-16.46,81.89-41.72,85.07-44a2.83,2.83,0,0,1,3.65,4.32c-2.55,2.21-58.14,30.5-81.54,42.37l77.54,45.52a2.83,2.83,0,0,1-1.43,5.27ZM705.15,190l0,0Z"/><path class="cls-3" d="M545.08,277.1C546,278.44,573.64,321,573.64,321h5.8L556.23,270.5Z"/><path class="cls-3" d="M241.64,324.85c1.36-1.34,15.75-44.62,15.75-44.62h7L251,328.45Z"/><path class="cls-4" d="M134,309.75c2.21,7.05,9.58,9.06,13.64,9.39,5.17.43,11.63-4,11.73-12.88.12-10-15-75-15-75S130.56,298.92,134,309.75Z"/><path class="cls-4" d="M134,147.3c2.29-7,9.68-9,13.75-9.24,5.17-.36,11.58,4.1,11.58,13,0,10-15.88,74.84-15.88,74.84S130.49,158.08,134,147.3Z"/><path class="cls-5" d="M168.14,218c-6.52.88-10.79,1.06-17.54,1.93-1.65.21-3.59,2-4.68,3.25a8.33,8.33,0,0,0-1.26,8.65,11,11,0,0,0,5.91,5.31c2.5,1,5.63,1.18,8.31,1.58,4.28.64,8.13,1.56,12.4,2.2Z"/><path class="cls-6" d="M241.64,174.61c4.74-10,3.69-64.42,93.42-51.1,69.21,10.27,122.23,62.29,122.23,62.29l-205.5,6.38-10.15-17.57Z"/><path class="cls-7" d="M244.61,165.35c-2.28,6.68-3.16,12.33-4.45,15l10.61,17.57,214.89-6.38a223.59,223.59,0,0,0-20.22-16.18Z"/><path class="cls-5" d="M164.74,226c0-36.5,79.48-51.91,79.48-51.91C327.76,170.82,584.86,198,584.86,198l21.52-48.61a7.59,7.59,0,0,1,6.93-4.52h48.78a7.59,7.59,0,0,1,7.51,8.66L666,178.6a7.36,7.36,0,0,1-6.83,6.31c-6.79.42-17,1.32-17.55,2.94-.81,2.43-7.29,63.26-34.06,78.67S496.46,299.78,367.5,300.59,164.74,277.07,164.74,226Z"/><path class="cls-8" d="M296.13,228.4c-2.75,23.57,121.08,113,196.27,106.52,43.7-3.77-35.11-94.08-35.11-94.08-18-19.66-14.18-30.3-90.33-34.07C312.35,204.07,298.83,205.22,296.13,228.4Z"/><path class="cls-8" d="M608.88,203.73a316.18,316.18,0,0,0,34.12,6.5,23.46,23.46,0,0,0,8.6,0c2.8-.67,5.49-2.57,6.3-5.34,1-3.29-1-6.87-3.82-8.83s-6.29-2.66-9.66-3.25c-10.93-1.91-26.4-6.49-37.55-4.66C595.56,190,599.86,201.49,608.88,203.73Z"/><path class="cls-9" d="M273.07,133.73c6.38-4.37,14.47-5.77,22.3-6,6-.2,12.44.38,16.95,4.15.93.78,1.78,2.12,1,3.05a2.56,2.56,0,0,1-1.28.7c-7.32,2.33-16.1,2.64-21,8.37-2.06,2.41-3.09,5.48-4.79,8.15-3.31,5.23-18.35,14.45-23.58,7.37C257.31,152.2,267.26,137.7,273.07,133.73Z"/><circle class="cls-8" cx="246.39" cy="328.45" r="22.64"/><circle class="cls-5" cx="246.39" cy="328.45" r="11.01"/><path class="cls-8" d="M591.65,321a15.21,15.21,0,1,1-15.21-15.21A15.21,15.21,0,0,1,591.65,321Z"/><path class="cls-5" d="M583.84,321a7.4,7.4,0,1,1-7.4-7.4A7.39,7.39,0,0,1,583.84,321Z"/><path class="cls-9" d="M368,272.58C382.14,284,395.46,297.06,412.25,304c2.64,1.09,6.75,1.28,7.27-1.52.32-1.66-1-3.12-2.3-4.24-14.43-12.85-31.13-22.81-47-33.76a207.33,207.33,0,0,1-26.1-20.67,116.15,116.15,0,0,1-11.15-12.22c-2.92-3.73-5.42-10.07-9.25-12.81-5.53-4-14.38.46-12.86,7.5,2,9.14,18,17.37,25,22.43C346.61,256.53,357.62,264.16,368,272.58Z"/><path class="cls-9" d="M430.47,313.16a160.43,160.43,0,0,0,27.78,12c1.55.51,3.29,1,4.77.28,1.87-.89,2.49-3.46,1.7-5.37a7.82,7.82,0,0,0-4.56-4c-1.93-.76-4-1.08-6-1.67-4.14-1.24-11.69-5.24-15.67-6.93S420.78,307.84,430.47,313.16Z"/><path class="cls-7" d="M112.27,210.25a1.42,1.42,0,0,0,0-2.83,1.42,1.42,0,0,0,0,2.83Z"/><path class="cls-7" d="M113.6,208.77a268.7,268.7,0,0,1,2.92-29.29c.75-4.77,1.61-9.52,2.62-14.24A88.12,88.12,0,0,1,122.89,152c2.83-7.33,7.53-14.32,14.55-18.17,6.32-3.48,14.89-3.81,20.77.82s7.26,12.85,7.89,19.94c.08,1,.15,1.92.22,2.89a1.42,1.42,0,0,0,2.83,0c-.56-7.86-1.37-16.51-6.75-22.72s-14.68-7.78-22.3-5.19c-7.95,2.7-14,9.31-17.72,16.65-4.4,8.68-6.19,18.51-7.84,28A272.21,272.21,0,0,0,111,204.91c-.08,1.28-.15,2.57-.21,3.86-.08,1.82,2.75,1.81,2.84,0Z"/><path class="cls-7" d="M124.76,312.43a1.42,1.42,0,0,0,0-2.83,1.42,1.42,0,0,0,0,2.83Z"/><path class="cls-7" d="M123.31,311.39A41.93,41.93,0,0,0,133,332.45a16,16,0,0,0,8.77,5.18,18.08,18.08,0,0,0,9.19-.74,24.2,24.2,0,0,0,14.18-13.44c3.06-6.91,3.76-14.54,4.12-22q.75-15,0-30.13c-.08-1.81-2.91-1.82-2.83,0,.42,8.53.48,17.09.19,25.63-.25,7.27-.49,14.72-2.68,21.72a27.26,27.26,0,0,1-4.53,9,20.69,20.69,0,0,1-6.83,5.53c-5,2.53-11.24,2.85-15.72-.91a29.74,29.74,0,0,1-7.08-9.81,41.75,41.75,0,0,1-3.74-11.8,1.43,1.43,0,0,0-1.74-1,1.46,1.46,0,0,0-1,1.74Z"/><path class="cls-7" d="M111.18,163.27a98.27,98.27,0,0,1,6.73-25.15c2.86-6.82,7-13.62,13.91-16.92a15.91,15.91,0,0,1,11.37-1.14c1.75.53,2.5-2.21.76-2.73-7.83-2.34-16.1,1.51-21.28,7.37a41.07,41.07,0,0,0-6.54,10.48,92.36,92.36,0,0,0-4.61,12.68,103.77,103.77,0,0,0-3.17,15.41,1.41,1.41,0,0,0,1.41,1.41,1.45,1.45,0,0,0,1.42-1.41Z"/><path class="cls-7" d="M144.52,346.64a22.76,22.76,0,0,0,19.72-5c5.66-4.92,8.29-12.39,9.26-19.64a103.82,103.82,0,0,0,.61-14.11,1.42,1.42,0,0,0-2.83,0c0,7.52,0,15.23-2.68,22.35-2.3,6-6.74,11.08-13,13.11a19.84,19.84,0,0,1-10.34.54c-1.77-.4-2.53,2.33-.75,2.73Z"/><path class="cls-7" d="M158.8,353.18c4.77.63,9.62-1.6,12.84-5.05,3.41-3.65,5.17-8.52,5.85-13.4a1.46,1.46,0,0,0-1-1.74,1.42,1.42,0,0,0-1.74,1c-.61,4.31-2,8.71-5,12a12.76,12.76,0,0,1-11,4.39,1.42,1.42,0,0,0-1.42,1.41,1.46,1.46,0,0,0,1.42,1.42Z"/><path class="cls-7" d="M112.93,135.27c.84-2.65,1.66-5.3,2.52-7.94a51.61,51.61,0,0,1,2.53-6.6c1.93-3.93,4.83-7.47,9.18-8.76a8.77,8.77,0,0,1,6.41.36c1.62.82,3.06-1.63,1.43-2.44-4.45-2.24-9.73-1-13.57,1.88-4.26,3.25-6.5,8.29-8.19,13.23-1.07,3.15-2,6.34-3,9.51-.55,1.74,2.18,2.49,2.73.76Z"/><path class="cls-7" d="M150.6,219.94c-5.51,0-10,3.82-10,8.54s4.47,8.55,10,8.55Z"/><path class="cls-7" d="M181,262a78.77,78.77,0,0,0,12.54,9.42,7.28,7.28,0,0,0,.62-.51,17,17,0,0,0,4-6.47A73,73,0,0,0,203.43,239a123.44,123.44,0,0,0-.53-12.9c-.89-10.87-2.46-22.22-8.85-31.05a25.34,25.34,0,0,0-2.21-2.66,88.16,88.16,0,0,0-11.41,7.36,4.46,4.46,0,0,1,.34.42,27.23,27.23,0,0,1,3.8,7.58c1.7,5.17,2.14,10.66,2.55,16.09,1,12.92,1.49,26.94-5.77,37.67Z"/><path class="cls-4" d="M184.18,264.85a27.37,27.37,0,0,0,3.21-5.28,68.67,68.67,0,0,0,3.5-50c-1.54-4.86-3.93-9.21-7.44-11.9-10.81,7.49-18.71,16.9-18.71,28.41C164.74,241.37,171.39,254.29,184.18,264.85Z"/><path class="cls-2" d="M701.25,307.91c-.89-3.12,0-144.64,0-144.64s152.32-38.46,248.09-35.6c207.92,6.2,278.42,29.13,278.42,29.13L1234,304.34s-107.48-35.94-261.67-29.13S701.25,307.91,701.25,307.91Z"/></g><path class="cls-10" d="M808.6,222.92a11.7,11.7,0,0,0,2.28,6.92c2.57,3,7.08,3.86,13.62,2.65a30.83,30.83,0,0,0,8-2.61c4.69-2.32,7.05-5.38,7.05-9.28,0-2.92-1-4.86-3-5.74s-5.18-1.41-9.45-1.53c-2.63-.08-5.24-.13-7.85-.17-5.11-.08-8.7-.5-10.8-1.34-3.63-1.47-5.43-4.4-5.44-8.85a18.71,18.71,0,0,1,5.35-13c3.57-3.85,8.65-6.45,15.27-7.69,6.11-1.14,11.34-.67,15.66,1.34s6.49,6,6.49,12c-2.58.4-5.16.8-7.72,1.22q-.6-4.2-2.53-6.18c-2.39-2.39-6.45-3.1-12.12-2-4.58.86-7.85,2.42-9.84,4.62a10.27,10.27,0,0,0-3,6.89c0,2.63,1.18,4.31,3.52,5,1.53.47,5,.73,10.49.88,2.72.07,5.44.15,8.17.26a22.59,22.59,0,0,1,9.17,1.87c3.73,1.92,5.61,5.28,5.61,10A15.94,15.94,0,0,1,840.45,232,42.14,42.14,0,0,1,824,238.72c-7.26,1.35-12.88.8-16.92-1.71s-6-6.64-5.93-12.45Q804.83,223.72,808.6,222.92Z"/><path class="cls-10" d="M859.16,178c2.54-.34,5.1-.67,7.66-1v7.44c-2.56.32-5.12.65-7.66,1Zm0,14.7c2.54-.34,5.1-.67,7.66-1v38.89c-2.56.31-5.12.64-7.66,1Z"/><path class="cls-10" d="M904.4,189.37a17.84,17.84,0,0,1,4.42,3.4v-4.92q3.54-.25,7.1-.46v35.53q0,7.44-2.56,11.9c-3.18,5.51-9.2,8.54-18,9.29q-7.33.63-12.3-1.67c-3.32-1.55-5.16-4.3-5.56-8.27,2.57-.28,5.15-.54,7.74-.8a6.21,6.21,0,0,0,2.19,3.84c1.71,1.3,4.41,1.77,8.1,1.45,5.83-.5,9.67-2.54,11.48-6.22q1.62-3.25,1.49-11.3A16.13,16.13,0,0,1,903,226a22.64,22.64,0,0,1-8.53,2.15,18.56,18.56,0,0,1-12.85-3.28c-3.66-2.63-5.49-7.39-5.49-14.32,0-6.54,1.84-11.86,5.53-15.91a19.92,19.92,0,0,1,13.41-6.77A17.39,17.39,0,0,1,904.4,189.37Zm.94,7a11,11,0,0,0-8.86-2.8c-5.36.45-9,3-11,7.49a23.48,23.48,0,0,0-1.56,9.24q0,6.6,3.1,9.74c2.07,2.1,4.84,3,8.34,2.69,5.47-.47,9.33-2.87,11.57-7.29a18.87,18.87,0,0,0,1.87-8.56Q908.82,199.59,905.34,196.34Z"/><path class="cls-10" d="M928.54,186.35q3.68-.16,7.35-.3v5.54a20.77,20.77,0,0,1,6.93-5.15,21.12,21.12,0,0,1,8.14-1.7c6.54-.13,11,1.78,13.27,5.63q1.9,3.16,1.9,9.08v25.06l-7.89.06V199.94A11.49,11.49,0,0,0,957,194.2c-1.38-2.42-3.88-3.6-7.5-3.52a18.44,18.44,0,0,0-4.52.58,12.51,12.51,0,0,0-5.59,3.38,9.72,9.72,0,0,0-2.52,4.08,23.07,23.07,0,0,0-.58,5.91V225.1q-3.87.14-7.74.32Z"/><path class="cls-10" d="M1056.51,183.08c4.11,5.17,6.16,11.48,6.15,18.87,0,8-2.34,14.38-7,19.19-5.52,5.65-13.42,8-23.74,7.24-9.64-.71-17.47-3.83-22.82-9.54-5-5.3-7.43-12.2-7.43-20.23,0-7.24,2.12-13.38,6.36-18.34,5.43-6.36,13.72-9,24.06-8.49C1040.58,172.19,1051.55,176.33,1056.51,183.08Zm-7.43,33.41a24.21,24.21,0,0,0,5-15.34,22.51,22.51,0,0,0-5.73-15.78c-3.83-4.21-9.08-6.6-15.76-7.1-6.48-.48-11.8,1.11-15.91,4.69s-6.17,9.1-6.17,16.53a23.27,23.27,0,0,0,5.29,15.29c3.53,4.27,9.26,6.63,17.13,7.22C1040.37,222.56,1045.76,220.77,1049.08,216.49Z"/><path class="cls-10" d="M1080,192.76V218.7a10.92,10.92,0,0,0,1,5c1.3,2.51,3.72,4,7.25,4.54,5.06.75,8.49-.73,10.31-4.52q1.48-3,1.48-8.77V195.8q3.71.62,7.39,1.26v39.07q-3.48-.62-7-1.2l.09-5.75a10.81,10.81,0,0,1-3.52,3.18c-2.78,1.6-6.16,2.09-10.15,1.5-6.22-.91-10.5-3.31-12.77-7.33a16.4,16.4,0,0,1-1.85-8.22V191.75C1074.87,192.08,1077.44,192.41,1080,192.76Z"/><path class="cls-10" d="M1121.74,188.85c2.45.5,4.89,1,7.33,1.52v10.91q3.43.74,6.85,1.51v5.36q-3.42-.78-6.85-1.51v25.5a3.46,3.46,0,0,0,1.53,3.07,8.52,8.52,0,0,0,2.8,1l1.12.23c.4.07.87.13,1.4.19v5.21a16.17,16.17,0,0,1-2.58-.1,27.91,27.91,0,0,1-2.9-.49c-3.37-.73-5.68-2-6.89-3.8a11.37,11.37,0,0,1-1.81-6.47V205.12l-5.88-1.15v-5.36c2,.37,3.92.76,5.88,1.15Z"/></svg>