<?xml version="1.0" encoding="iso-8859-1"?>
<!-- Generator: Adobe Illustrator 19.0.0, SVG Export Plug-In . SVG Version: 6.00 Build 0)  -->
<svg version="1.1" id="Layer_1" xmlns="http://www.w3.org/2000/svg" xmlns:xlink="http://www.w3.org/1999/xlink" x="0px" y="0px"
	 viewBox="0 0 512 512" style="enable-background:new 0 0 512 512;" xml:space="preserve">
<g>
	<g>
		<path style="fill:#91CF96;" d="M260.339,303.729c-4.79,0-8.678-3.888-8.678-8.678c0-66.629,65.571-190.915,190.915-190.915
			c4.79,0,8.678,3.888,8.678,8.678C451.254,179.443,385.684,303.729,260.339,303.729"/>
		<path style="fill:#91CF96;" d="M182.237,156.203c-103.65,0-156.203-49.638-156.203-147.525c0-4.79,3.888-8.678,8.678-8.678
			c103.65,0,156.203,49.638,156.203,147.525C190.915,152.316,187.028,156.203,182.237,156.203"/>
	</g>
	<g>
		<path style="fill:#5ABA63;" d="M216.97,470.093c-0.816,0-1.64-0.121-2.465-0.364c-4.591-1.354-7.22-6.179-5.858-10.778
			c43.763-147.994-8.99-276.063-33.159-305.968c-3.011-3.732-2.439-9.199,1.293-12.21c3.732-3.003,9.181-2.43,12.201,1.302
			c30.156,37.307,81.156,170.14,36.3,321.796C224.173,467.646,220.719,470.093,216.97,470.093"/>
		<path style="fill:#5ABA63;" d="M234.174,338.954c-0.911,0-1.848-0.148-2.768-0.46c-4.539-1.527-6.986-6.448-5.458-10.986
			c3.341-9.928,20.575-31.345,51.243-63.636c45.993-48.458,48.961-48.128,53.014-47.677c4.764,0.547,8.183,4.851,7.637,9.607
			c-0.33,2.89-2.048,5.285-4.408,6.604c-9.303,7.411-85.539,84.289-91.032,100.63C241.186,336.663,237.801,338.954,234.174,338.954"
			/>
		<path style="fill:#5ABA63;" d="M182.242,156.203c-2.352,0-4.703-0.946-6.413-2.82c-27.752-30.382-73.711-62.117-74.171-62.438
			c-3.948-2.716-4.946-8.123-2.23-12.071c2.716-3.94,8.114-4.938,12.071-2.222c1.944,1.336,48.067,33.193,77.147,65.015
			c3.228,3.541,2.985,9.034-0.555,12.262C186.424,155.457,184.333,156.203,182.242,156.203"/>
	</g>
	<path style="fill:#864D18;" d="M459.932,459.932c0-14.379-11.654-26.034-26.034-26.034c-11.724,0-21.643,7.758-24.906,18.415
		c-1.406,4.608-5.832,7.619-10.648,7.619c-4.105,0-7.68-2.317-9.849-5.797c-3.879-6.239-13.451-11.559-24.021-11.559
		c0-14.379-11.655-26.034-26.034-26.034c-7.55,0-14.284,3.263-19.039,8.392c-3.662-9.945-13.138-17.07-24.35-17.07
		c-14.379,0-26.034,11.654-26.034,26.034c-14.839,0-26.78,12.418-25.999,27.431c0.382,7.281,3.983,13.581,9.277,17.998
		c0.148-0.338,0.391-0.616,0.495-0.981c3.263-10.657,13.182-18.415,24.906-18.415c14.379,0,26.034,11.655,26.034,26.034
		c14.379,0,26.034,11.655,26.034,26.034h130.169c14.379,0,26.034-11.654,26.034-26.034
		C485.966,471.587,474.312,459.932,459.932,459.932"/>
	<path style="fill:#AF6D2D;" d="M303.728,485.966c0-14.379-11.655-26.034-26.034-26.034c-11.724,0-21.643,7.758-24.897,18.415
		c-0.113,0.364-0.356,0.642-0.503,0.981c-5.294-4.417-8.895-10.717-9.277-17.998c-0.026-0.477,0.069-0.92,0.069-1.397h-17.46
		c-11.724,0-21.643,7.758-24.906,18.415c-1.406,4.608-5.832,7.619-10.648,7.619c-4.105,0-7.68-2.317-9.85-5.797
		c-3.879-6.239-13.451-11.559-24.021-11.559c0-14.379-11.654-26.034-26.034-26.034c-7.55,0-14.284,3.263-19.039,8.392
		c-3.662-9.945-13.138-17.07-24.35-17.07c-14.379,0-26.034,11.654-26.034,26.034c-14.839,0-26.78,12.418-25.999,27.431
		C35.483,501.448,48.118,512,62.22,512h267.542C329.762,497.621,318.107,485.966,303.728,485.966"/>
</g>
<g>
</g>
<g>
</g>
<g>
</g>
<g>
</g>
<g>
</g>
<g>
</g>
<g>
</g>
<g>
</g>
<g>
</g>
<g>
</g>
<g>
</g>
<g>
</g>
<g>
</g>
<g>
</g>
<g>
</g>
</svg>
